# xmcd
#
# Track frame offsets:
#	150
#	16303
#	32880
#	45328
#	62713
#	79865
#	92430
#	110580
#	126478
#	142858
#	156780
#	171768
#	188913
#	208520
#
# Disc length: 3018 seconds
#
# Revision: 3
# Processed by: cddbd v1.5.2PL0 Copyright (c) Steve Scherf et al.
# Submitted via: audiograbber 1.83.01
#
DISCID=b50bc80e
DTITLE=Various Artist - Hot Hits Country Vol. 08
DYEAR=1993
DGENRE=Country
TTITLE0=Randy Travis - Cowboy Boogie
TTITLE1=Alan Jackson - Mercury Blues
TTITLE2=Diamond Rio - This Romeo Ain't Got Julie Yet
TTITLE3=Larry Stewart - I'll Cry Tomorrow
TTITLE4=Joe Diffie - Prop Me Up Beside The Jukebox
TTITLE5=Tracy Lawrence - My Second Home
TTITLE6=Leroy Parnell - On The Road
TTITLE7=Aaron Tippin - Working Man's PhD
TTITLE8=Mark Collie - Something's Gonna Change Her Mind
TTITLE9=George Strait - Easy Come, Easy Go
TTITLE10=Steve Wariner - If I Didn't Love You
TTITLE11=Pam Tillis - Do You Know Where Your Man Is
TTITLE12=Reba McEntire Duet With Linda Davis - Does He Love You
TTITLE13=Mark Chesnutt - Almost Goodbye
EXTD=
EXTT0=
EXTT1=
EXTT2=
EXTT3=
EXTT4=
EXTT5=
EXTT6=
EXTT7=
EXTT8=
EXTT9=
EXTT10=
EXTT11=
EXTT12=
EXTT13=
PLAYORDER=
